<svg xmlns="http://www.w3.org/2000/svg" fill="currentColor" viewBox="0 0 24 24" width="24" height="24">
  <path d="M12 0C5.373 0 0 5.373 0 12s5.373 12 12 12 12-5.373 12-12S18.627 0 12 0zm7.79 7.79a9.54 9.54 0 011.633 5.35c-.236-.041-5.189-.852-10.073.007a30.646 30.646 0 00-1.153-2.082c3.901-1.65 7.085-2.697 7.085-2.697 1.144 1.17 2.07 2.562 2.508 4.048zm-2.18-4.15c.043.042.084.086.127.128-.028.043-3.064 1.33-6.827 2.89a47.936 47.936 0 00-3.38-5.056c3.477-.627 7.11.162 10.08 2.038zm-13.39-.69c.142 0 .287 0 .432.011.03.041 3.078 4.661 3.697 5.605-3.797 1.096-7.517.846-7.743.825.505-2.73 2.197-5.028 4.468-6.441zM2.165 14.67a9.524 9.524 0 01-.137-1.668c.256.018 4.692.175 9.122-.901a31.51 31.51 0 011.486 3.362c-4.752 1.94-8.874 1.347-8.874 1.347-.621-.72-1.145-1.546-1.598-2.48zm3.43 4.49c1.682.739 3.838.943 6.277.21.01.017.02.035.032.052-.476.352-3.65 2.55-7.18 1.938a9.51 9.51 0 01-.13-.157zm9.68.04a29.327 29.327 0 00-1.564-3.337c4.923-1.395 8.655.357 8.655.357-.85 1.962-2.3 3.586-4.121 4.647-1.092-.653-2.595-1.358-2.97-1.667zm-1.718-4.47a33.66 33.66 0 011.523 3.222c-2.462.756-4.704.934-6.61.61 1.375-.89 3.968-2.556 5.087-3.832z"/>
</svg>
