<svg xmlns="http://www.w3.org/2000/svg" fill="currentColor" viewBox="0 0 24 24" width="24" height="24">
  <path d="M12 0c-3.313 0-3.73.013-5.03.073-1.299.06-2.18.265-2.954.564a5.918 5.918 0 00-2.145 1.401A5.919 5.919 0 00.637 4.93c-.299.774-.504 1.655-.563 2.954C.013 8.185 0 8.602 0 11.999s.013 3.73.073 5.03c.06 1.299.265 2.18.564 2.954.299.774.688 1.466 1.4 2.145a5.918 5.918 0 002.145 1.4c.774.299 1.655.504 2.954.564C8.185 23.987 8.602 24 12 24s3.73-.013 5.03-.073c1.299-.06 2.18-.265 2.954-.564a5.918 5.918 0 002.145-1.4 5.919 5.919 0 001.4-2.145c.299-.774.504-1.655.563-2.954.06-1.299.073-1.717.073-5.03s-.013-3.73-.073-5.03c-.06-1.299-.265-2.18-.564-2.954a5.918 5.918 0 00-1.4-2.145A5.918 5.918 0 0019.984.637C19.21.338 18.329.133 17.03.073 15.73.013 15.313 0 12 0zm0 5.838a6.162 6.162 0 016.162 6.162A6.162 6.162 0 0112 18.162 6.162 6.162 0 015.838 12 6.162 6.162 0 0112 5.838zm0 10.163A4.001 4.001 0 108 12a4.001 4.001 0 004 4.001zm6.406-10.63a1.44 1.44 0 110-2.88 1.44 1.44 0 010 2.88z"/>
</svg>
