<svg xmlns="http://www.w3.org/2000/svg" fill="currentColor" viewBox="0 0 24 24" width="24" height="24">
  <path d="M22.23 0H1.77C.79 0 0 .77 0 1.73v20.54C0 23.23.79 24 1.77 24h20.46C23.21 24 24 23.23 24 22.27V1.73C24 .77 23.21 0 22.23 0zM7.12 20.48H3.56V9h3.56v11.48zM5.34 7.59c-1.13 0-2.05-.91-2.05-2.04 0-1.13.91-2.05 2.05-2.05 1.12 0 2.04.91 2.04 2.05 0 1.13-.91 2.04-2.04 2.04zm15.14 12.89h-3.57v-5.59c0-1.33-.48-2.24-1.68-2.24-.92 0-1.47.62-1.71 1.21-.09.22-.11.52-.11.83v5.79H9.83V9h3.42v1.56c.46-.71 1.28-1.72 3.11-1.72 2.27 0 3.98 1.49 3.98 4.7v6.95z"/>
</svg>
