<svg xmlns="http://www.w3.org/2000/svg" fill="currentColor" viewBox="0 0 24 24" width="24" height="24">
  <path d="M23.954 4.569c-.885.392-1.83.656-2.825.775 1.014-.611 1.794-1.574 2.163-2.724-.951.564-2.005.974-3.127 1.195-.896-.957-2.173-1.555-3.594-1.555-2.723 0-4.928 2.205-4.928 4.93 0 .385.044.76.128 1.124C7.691 8.094 4.066 6.13 1.64 3.161c-.422.725-.664 1.562-.664 2.475 0 1.71.87 3.213 2.188 4.096-.807-.026-1.566-.247-2.228-.616v.062c0 2.385 1.698 4.374 3.946 4.827-.413.111-.848.171-1.296.171-.316 0-.624-.031-.924-.087.626 1.953 2.444 3.377 4.6 3.417-1.68 1.319-3.809 2.107-6.115 2.107-.398 0-.79-.023-1.175-.068 2.179 1.396 4.768 2.212 7.548 2.212 9.054 0 14.002-7.497 14.002-13.986 0-.213-.005-.426-.015-.637.961-.695 1.8-1.562 2.46-2.549z"/>
</svg>
